<svg width="23" height="20" viewBox="0 0 23 20" fill="none" xmlns="http://www.w3.org/2000/svg">
<path d="M10.8799 18.9405L16.4099 13.4005C16.7799 13.0305 16.9899 12.5205 16.9899 11.9905V2.00052C16.9899 0.900519 16.0899 0.000518799 14.9899 0.000518799H5.9999C5.1999 0.000518799 4.4799 0.480519 4.1699 1.21052L0.9099 8.82052C0.0598996 10.8005 1.5099 13.0005 3.6599 13.0005H9.3099L8.3599 17.5805C8.2599 18.0805 8.4099 18.5905 8.7699 18.9505C9.3599 19.5305 10.2999 19.5305 10.8799 18.9405ZM20.9999 0.000518799C19.8999 0.000518799 18.9999 0.900519 18.9999 2.00052V10.0005C18.9999 11.1005 19.8999 12.0005 20.9999 12.0005C22.0999 12.0005 22.9999 11.1005 22.9999 10.0005V2.00052C22.9999 0.900519 22.0999 0.000518799 20.9999 0.000518799Z" fill="#A8A7A7"/>
</svg>
