<svg width="48" height="48" viewBox="0 0 48 48" fill="none" xmlns="http://www.w3.org/2000/svg">
<path d="M0 24C0 10.7452 10.7452 0 24 0C37.2548 0 48 10.7452 48 24C48 37.2548 37.2548 48 24 48C10.7452 48 0 37.2548 0 24Z" fill="#A8A7A7"/>
<path d="M23.3343 23.4414V24.3398C23.3343 25.4076 23.2008 26.3646 22.9339 27.2109C22.667 28.0573 22.2829 28.7767 21.7816 29.3691C21.2803 29.9616 20.678 30.4141 19.9749 30.7266C19.2783 31.0391 18.4971 31.1953 17.6312 31.1953C16.7913 31.1953 16.0198 31.0391 15.3167 30.7266C14.6201 30.4141 14.0146 29.9616 13.5003 29.3691C12.9925 28.7767 12.5986 28.0573 12.3187 27.2109C12.0387 26.3646 11.8988 25.4076 11.8988 24.3398V23.4414C11.8988 22.3737 12.0355 21.4199 12.3089 20.5801C12.5889 19.7337 12.9827 19.0143 13.4905 18.4219C13.9984 17.8229 14.6006 17.3672 15.2972 17.0547C16.0003 16.7422 16.7718 16.5859 17.6116 16.5859C18.4775 16.5859 19.2588 16.7422 19.9554 17.0547C20.6585 17.3672 21.2607 17.8229 21.762 18.4219C22.2698 19.0143 22.6572 19.7337 22.9241 20.5801C23.1976 21.4199 23.3343 22.3737 23.3343 23.4414ZM21.4691 24.3398V23.4219C21.4691 22.5755 21.3812 21.8268 21.2054 21.1758C21.0361 20.5247 20.7855 19.9779 20.4534 19.5352C20.1214 19.0924 19.7145 18.7572 19.2327 18.5293C18.7575 18.3014 18.2171 18.1875 17.6116 18.1875C17.0257 18.1875 16.4951 18.3014 16.0198 18.5293C15.5511 18.7572 15.1474 19.0924 14.8089 19.5352C14.4769 19.9779 14.2197 20.5247 14.0374 21.1758C13.8551 21.8268 13.764 22.5755 13.764 23.4219V24.3398C13.764 25.1927 13.8551 25.9479 14.0374 26.6055C14.2197 27.2565 14.4801 27.8066 14.8187 28.2559C15.1637 28.6986 15.5706 29.0339 16.0394 29.2617C16.5146 29.4896 17.0452 29.6035 17.6312 29.6035C18.2432 29.6035 18.7868 29.4896 19.262 29.2617C19.7373 29.0339 20.1377 28.6986 20.4632 28.2559C20.7952 27.8066 21.0459 27.2565 21.2152 26.6055C21.3844 25.9479 21.4691 25.1927 21.4691 24.3398ZM31.5407 25.4238H27.7419V23.8906H31.5407C32.2764 23.8906 32.8721 23.7734 33.3278 23.5391C33.7835 23.3047 34.1156 22.9792 34.3239 22.5625C34.5387 22.1458 34.6462 21.6706 34.6462 21.1367C34.6462 20.6484 34.5387 20.1895 34.3239 19.7598C34.1156 19.3301 33.7835 18.985 33.3278 18.7246C32.8721 18.4577 32.2764 18.3242 31.5407 18.3242H28.1813V31H26.2966V16.7812H31.5407C32.6149 16.7812 33.5231 16.9668 34.2653 17.3379C35.0075 17.709 35.5707 18.2233 35.9548 18.8809C36.3389 19.5319 36.5309 20.2773 36.5309 21.1172C36.5309 22.0286 36.3389 22.8066 35.9548 23.4512C35.5707 24.0957 35.0075 24.5872 34.2653 24.9258C33.5231 25.2578 32.6149 25.4238 31.5407 25.4238Z" fill="white"/>
</svg>
